<svg xmlns="http://www.w3.org/2000/svg" viewBox="0 0 1200 650" font-family="-apple-system, BlinkMacSystemFont, 'Segoe UI', Helvetica, Arial, sans-serif">
  <rect width="1200" height="650" fill="#0f1117"/>

  <!-- Title -->
  <text x="40" y="38" fill="#f8fafc" font-size="18" font-weight="600">Genser Energy Operational Intelligence Platform</text>
  <text x="40" y="58" fill="#94a3b8" font-size="12">Microsoft Fabric · Medallion Architecture</text>

  <!-- Column headers -->
  <text x="120" y="100" fill="#cbd5e1" font-size="12" font-weight="600" text-anchor="middle" letter-spacing="1">SOURCES</text>
  <text x="370" y="100" fill="#CD7F32" font-size="12" font-weight="600" text-anchor="middle" letter-spacing="1">BRONZE · RAW ARCHIVE</text>
  <text x="640" y="100" fill="#94a3b8" font-size="12" font-weight="600" text-anchor="middle" letter-spacing="1">SILVER · CLEAN &amp; VERSION</text>
  <text x="910" y="100" fill="#F59E0B" font-size="12" font-weight="600" text-anchor="middle" letter-spacing="1">GOLD · STAR SCHEMA</text>
  <text x="1110" y="100" fill="#cbd5e1" font-size="12" font-weight="600" text-anchor="middle" letter-spacing="1">CONSUMERS</text>

  <!-- Arrow marker -->
  <defs>
    <marker id="arrow" viewBox="0 0 10 10" refX="9" refY="5" markerWidth="7" markerHeight="7" orient="auto-start-reverse">
      <path d="M0,0 L10,5 L0,10 z" fill="#64748b"/>
    </marker>
  </defs>

  <!-- SOURCES -->
  <g>
    <rect x="40" y="140" width="160" height="110" rx="8" fill="#1a1d27" stroke="#334155" stroke-width="1"/>
    <text x="120" y="165" fill="#f8fafc" font-size="13" font-weight="600" text-anchor="middle">SCADA System</text>
    <line x1="55" y1="178" x2="185" y2="178" stroke="#334155" stroke-width="1"/>
    <text x="55" y="198" fill="#cbd5e1" font-size="11" font-family="ui-monospace, Menlo, monospace">scada_plant_hourly</text>
    <text x="55" y="216" fill="#cbd5e1" font-size="11" font-family="ui-monospace, Menlo, monospace">scada_equipment_</text>
    <text x="55" y="232" fill="#cbd5e1" font-size="11" font-family="ui-monospace, Menlo, monospace">alarms</text>
  </g>

  <g>
    <rect x="40" y="290" width="160" height="170" rx="8" fill="#1a1d27" stroke="#334155" stroke-width="1"/>
    <text x="120" y="315" fill="#f8fafc" font-size="13" font-weight="600" text-anchor="middle">SAP ERP</text>
    <line x1="55" y1="328" x2="185" y2="328" stroke="#334155" stroke-width="1"/>
    <text x="55" y="348" fill="#cbd5e1" font-size="11" font-family="ui-monospace, Menlo, monospace">erp_plant_master</text>
    <text x="55" y="368" fill="#cbd5e1" font-size="11" font-family="ui-monospace, Menlo, monospace">erp_contracts</text>
    <text x="55" y="388" fill="#cbd5e1" font-size="11" font-family="ui-monospace, Menlo, monospace">erp_invoices</text>
    <text x="55" y="408" fill="#cbd5e1" font-size="11" font-family="ui-monospace, Menlo, monospace">erp_fuel_deliveries</text>
  </g>

  <!-- BRONZE -->
  <g>
    <rect x="290" y="250" width="160" height="120" rx="8" fill="#1a1d27" stroke="#CD7F32" stroke-width="1.5"/>
    <text x="370" y="285" fill="#f8fafc" font-size="13" font-weight="600" text-anchor="middle">Bronze Ingestion</text>
    <line x1="305" y1="300" x2="435" y2="300" stroke="#3a2d1f" stroke-width="1"/>
    <text x="370" y="322" fill="#CD7F32" font-size="11" text-anchor="middle">incremental load</text>
    <text x="370" y="340" fill="#CD7F32" font-size="11" text-anchor="middle">+ overwrite strategy</text>
    <text x="370" y="358" fill="#94a3b8" font-size="10" text-anchor="middle">Delta · Parquet</text>
  </g>

  <!-- SILVER -->
  <g>
    <rect x="540" y="125" width="200" height="70" rx="8" fill="#1a1d27" stroke="#94a3b8" stroke-width="1.5"/>
    <text x="640" y="152" fill="#f8fafc" font-size="13" font-weight="600" text-anchor="middle">Silver Plant Master</text>
    <text x="640" y="175" fill="#94a3b8" font-size="10" text-anchor="middle">SCD Type 2 + MD5 hash</text>
  </g>

  <g>
    <rect x="540" y="215" width="200" height="70" rx="8" fill="#1a1d27" stroke="#94a3b8" stroke-width="1.5"/>
    <text x="640" y="242" fill="#f8fafc" font-size="13" font-weight="600" text-anchor="middle">Silver Contracts</text>
    <text x="640" y="265" fill="#94a3b8" font-size="10" text-anchor="middle">SCD Type 2 + MD5 hash</text>
  </g>

  <g>
    <rect x="540" y="305" width="200" height="60" rx="8" fill="#1a1d27" stroke="#94a3b8" stroke-width="1.5"/>
    <text x="640" y="332" fill="#f8fafc" font-size="13" font-weight="600" text-anchor="middle">Silver Plant Readings</text>
    <text x="640" y="350" fill="#94a3b8" font-size="10" text-anchor="middle">hourly time series</text>
  </g>

  <g>
    <rect x="540" y="385" width="200" height="60" rx="8" fill="#1a1d27" stroke="#94a3b8" stroke-width="1.5"/>
    <text x="640" y="408" fill="#f8fafc" font-size="13" font-weight="600" text-anchor="middle">Silver Alarms ·</text>
    <text x="640" y="425" fill="#f8fafc" font-size="13" font-weight="600" text-anchor="middle">Invoices · Fuel</text>
  </g>

  <!-- GOLD -->
  <g>
    <rect x="830" y="135" width="160" height="60" rx="8" fill="#1a1d27" stroke="#F59E0B" stroke-width="1.5"/>
    <text x="910" y="160" fill="#f8fafc" font-size="13" font-weight="600" text-anchor="middle">dim_plants</text>
    <text x="910" y="178" fill="#F59E0B" font-size="10" text-anchor="middle">dimension</text>
  </g>
  <g>
    <rect x="830" y="215" width="160" height="60" rx="8" fill="#1a1d27" stroke="#F59E0B" stroke-width="1.5"/>
    <text x="910" y="240" fill="#f8fafc" font-size="13" font-weight="600" text-anchor="middle">dim_contracts</text>
    <text x="910" y="258" fill="#F59E0B" font-size="10" text-anchor="middle">dimension</text>
  </g>
  <g>
    <rect x="830" y="295" width="160" height="60" rx="8" fill="#1a1d27" stroke="#F59E0B" stroke-width="1.5"/>
    <text x="910" y="320" fill="#f8fafc" font-size="13" font-weight="600" text-anchor="middle">fact_generation</text>
    <text x="910" y="338" fill="#F59E0B" font-size="10" text-anchor="middle">hourly</text>
  </g>
  <g>
    <rect x="830" y="375" width="160" height="60" rx="8" fill="#1a1d27" stroke="#F59E0B" stroke-width="1.5"/>
    <text x="910" y="397" fill="#f8fafc" font-size="13" font-weight="600" text-anchor="middle">fact_monthly_</text>
    <text x="910" y="414" fill="#f8fafc" font-size="13" font-weight="600" text-anchor="middle">performance</text>
    <text x="910" y="430" fill="#F59E0B" font-size="10" text-anchor="middle">monthly</text>
  </g>

  <!-- CONSUMERS -->
  <g>
    <rect x="1040" y="155" width="140" height="60" rx="8" fill="#1a1d27" stroke="#334155" stroke-width="1"/>
    <text x="1110" y="180" fill="#f8fafc" font-size="13" font-weight="600" text-anchor="middle">Power BI</text>
    <text x="1110" y="198" fill="#94a3b8" font-size="11" text-anchor="middle">Dashboard</text>
  </g>
  <g>
    <rect x="1040" y="265" width="140" height="50" rx="8" fill="#1a1d27" stroke="#334155" stroke-width="1"/>
    <text x="1110" y="295" fill="#f8fafc" font-size="13" font-weight="600" text-anchor="middle">Operations Team</text>
  </g>
  <g>
    <rect x="1040" y="365" width="140" height="50" rx="8" fill="#1a1d27" stroke="#334155" stroke-width="1"/>
    <text x="1110" y="395" fill="#f8fafc" font-size="13" font-weight="600" text-anchor="middle">Finance Team</text>
  </g>

  <!-- ARROWS -->
  <line x1="200" y1="195" x2="285" y2="280" stroke="#64748b" stroke-width="1.5" marker-end="url(#arrow)"/>
  <line x1="200" y1="375" x2="285" y2="335" stroke="#64748b" stroke-width="1.5" marker-end="url(#arrow)"/>

  <line x1="450" y1="290" x2="535" y2="160" stroke="#64748b" stroke-width="1.5" marker-end="url(#arrow)"/>
  <line x1="450" y1="300" x2="535" y2="250" stroke="#64748b" stroke-width="1.5" marker-end="url(#arrow)"/>
  <line x1="450" y1="320" x2="535" y2="335" stroke="#64748b" stroke-width="1.5" marker-end="url(#arrow)"/>
  <line x1="450" y1="340" x2="535" y2="415" stroke="#64748b" stroke-width="1.5" marker-end="url(#arrow)"/>

  <line x1="740" y1="160" x2="825" y2="165" stroke="#64748b" stroke-width="1.5" marker-end="url(#arrow)"/>
  <line x1="740" y1="250" x2="825" y2="245" stroke="#64748b" stroke-width="1.5" marker-end="url(#arrow)"/>
  <line x1="740" y1="335" x2="825" y2="325" stroke="#64748b" stroke-width="1.5" marker-end="url(#arrow)"/>
  <line x1="740" y1="415" x2="825" y2="405" stroke="#64748b" stroke-width="1.5" marker-end="url(#arrow)"/>

  <line x1="990" y1="165" x2="1035" y2="180" stroke="#64748b" stroke-width="1.5" marker-end="url(#arrow)"/>
  <line x1="990" y1="325" x2="1035" y2="290" stroke="#64748b" stroke-width="1.5" marker-end="url(#arrow)"/>
  <line x1="990" y1="405" x2="1035" y2="390" stroke="#64748b" stroke-width="1.5" marker-end="url(#arrow)"/>

  <!-- LEGEND -->
  <g transform="translate(40, 580)">
    <text x="0" y="0" fill="#94a3b8" font-size="11" font-weight="600" letter-spacing="1">LEGEND</text>
    <rect x="0" y="14" width="14" height="14" rx="3" fill="#1a1d27" stroke="#CD7F32" stroke-width="1.5"/>
    <text x="22" y="25" fill="#cbd5e1" font-size="12">Bronze · Raw</text>
    <rect x="140" y="14" width="14" height="14" rx="3" fill="#1a1d27" stroke="#94a3b8" stroke-width="1.5"/>
    <text x="162" y="25" fill="#cbd5e1" font-size="12">Silver · Conformed</text>
    <rect x="310" y="14" width="14" height="14" rx="3" fill="#1a1d27" stroke="#F59E0B" stroke-width="1.5"/>
    <text x="332" y="25" fill="#cbd5e1" font-size="12">Gold · Analytics</text>
  </g>
</svg>
